<svg width="23" height="23" viewBox="0 0 23 23" fill="none" xmlns="http://www.w3.org/2000/svg">
<g clip-path="url(#clip0_20_3)">
<path fill-rule="evenodd" clip-rule="evenodd" d="M5.79081 20.0555L9.94213 17.5394C10.7965 17.0215 11.8678 17.0215 12.7223 17.5392L16.876 20.0561L15.7759 15.3418C15.5503 14.3746 15.8775 13.3619 16.6264 12.7097L20.2849 9.52377L15.4669 9.11464C14.4771 9.03058 13.6148 8.40633 13.2259 7.49225L11.3333 3.04426L9.44081 7.49225C9.05189 8.40633 8.1896 9.03058 7.19978 9.11464L2.38181 9.52377L6.04022 12.7097C6.78917 13.3619 7.11641 14.3746 6.89073 15.3418L5.79081 20.0555ZM10.7763 18.9156C11.118 18.7084 11.5465 18.7084 11.8883 18.9155L17.132 22.0929C17.9444 22.5852 18.9486 21.8566 18.7328 20.9316L17.3431 14.9761C17.2528 14.5892 17.3837 14.1842 17.6833 13.9233L22.2969 9.90551C23.0115 9.28316 22.6274 8.10766 21.6831 8.02747L15.6031 7.51116C15.2071 7.47754 14.8622 7.22784 14.7066 6.8622L12.3205 1.25412C11.9502 0.383718 10.7165 0.383716 10.3461 1.25412L7.96003 6.8622C7.80446 7.22784 7.45954 7.47754 7.06361 7.51116L0.983548 8.02747C0.0393028 8.10766 -0.344878 9.28316 0.369765 9.90551L4.98338 13.9233C5.28296 14.1842 5.41385 14.5892 5.32358 14.9761L3.934 20.9311C3.71813 21.8563 4.72244 22.5848 5.53484 22.0924L10.7763 18.9156Z" fill="#FFC500"/>
</g>
<defs>
<clipPath id="clip0_20_3">
<rect width="22.6667" height="21.7222" fill="white" transform="translate(0 0.601318)"/>
</clipPath>
</defs>
</svg>