<svg width="24" height="23" viewBox="0 0 24 23" fill="none" xmlns="http://www.w3.org/2000/svg">
<g clip-path="url(#clip0_169_212)">
<path d="M12.5549 18.9155C12.2132 18.7084 11.7846 18.7084 11.4429 18.9156L6.20147 22.0924C5.38907 22.5848 4.38475 21.8563 4.60063 20.9311L5.99021 14.9761C6.08048 14.5892 5.94958 14.1842 5.65 13.9233L1.03639 9.90551C0.321748 9.28316 0.705929 8.10766 1.65017 8.02747L7.73024 7.51116C8.12617 7.47754 8.47108 7.22784 8.62665 6.8622L11.0128 1.25412C11.3831 0.383716 12.6168 0.383718 12.9871 1.25412L15.3733 6.8622C15.5288 7.22784 15.8738 7.47754 16.2697 7.51116L22.3497 8.02747C23.294 8.10766 23.6782 9.28316 22.9635 9.90551L18.3499 13.9233C18.0503 14.1842 17.9194 14.5892 18.0097 14.9761L19.3994 20.9316C19.6152 21.8566 18.6111 22.5852 17.7987 22.0929L12.5549 18.9155Z" fill="#FFC500"/>
</g>
<defs>
<clipPath id="clip0_169_212">
<rect width="22.6667" height="21.7222" fill="white" transform="translate(0.666626 0.601318)"/>
</clipPath>
</defs>
</svg>