<svg width="832" height="627" viewBox="0 0 832 627" fill="none" xmlns="http://www.w3.org/2000/svg">
<path opacity="0.8" d="M434.676 414.729C413.577 390.377 424.313 363 424.313 363C435.973 375.838 440.472 397.326 434.972 413.853L434.676 414.729Z" fill="#6AC3A8"/>
<path opacity="0.8" d="M506.119 424.082C465.096 416.003 453.938 379.698 453.938 379.698C476.101 383.537 497.98 401.818 505.703 422.954L506.119 424.082Z" fill="#6AC3A8"/>
<path opacity="0.8" d="M640.748 484.846C631.227 475.655 634.597 464.069 634.597 464.069C639.841 468.895 642.475 477.521 640.833 484.48L640.748 484.846Z" fill="#6AC3A8"/>
<path opacity="0.8" d="M616.274 457.412C593.702 458.222 583.274 440.514 583.274 440.514C595.41 439.801 609.197 446.715 615.91 456.874L616.265 457.417L616.274 457.412Z" fill="#6AC3A8"/>
<path opacity="0.8" d="M688.371 539.828C665.799 540.638 655.371 522.931 655.371 522.931C667.507 522.217 681.294 529.131 688.007 539.29L688.362 539.833L688.371 539.828Z" fill="#6AC3A8"/>
<path opacity="0.8" d="M598.024 528.765C555.551 490.226 568.595 439.626 568.595 439.626C591.932 459.829 604.507 496.813 598.344 527.148L598.019 528.755L598.024 528.765Z" fill="#6AC3A8"/>
<path opacity="0.8" d="M647.013 521.646C610.039 509.301 604.115 474.411 604.115 474.411C624.16 480.591 642.177 500.093 646.771 520.561L647.013 521.646Z" fill="#6AC3A8"/>
<path opacity="0.8" d="M640.907 586.386C616.277 560.452 626.774 529.556 626.774 529.556C640.348 543.2 646.444 566.795 641.194 585.4L640.917 586.382L640.907 586.386Z" fill="#6AC3A8"/>
<path opacity="0.8" d="M553.946 434.765C542.383 426.024 544.51 413.013 544.51 413.013C550.836 417.572 554.845 426.585 553.998 434.357L553.95 434.774L553.946 434.765Z" fill="#6AC3A8"/>
<path opacity="0.8" d="M604.224 430.139C594.901 423.085 596.608 412.585 596.608 412.585C601.718 416.262 604.948 423.54 604.252 429.801L604.219 430.13L604.224 430.139Z" fill="#6AC3A8"/>
<path opacity="0.8" d="M539.689 373.111C530.366 366.057 532.073 355.557 532.073 355.557C537.184 359.233 540.413 366.512 539.717 372.773L539.684 373.102L539.689 373.111Z" fill="#6AC3A8"/>
<path opacity="0.8" d="M576.943 386.367C570.07 384.532 568.599 378.24 568.599 378.24C572.314 379.141 575.824 382.495 576.891 386.172L576.943 386.367Z" fill="#6AC3A8"/>
<path opacity="0.8" d="M697.94 569.32C692.689 562.182 696.25 554.902 696.25 554.902C699.165 558.676 699.926 564.671 698.044 569.084L697.94 569.32Z" fill="#6AC3A8"/>
<path opacity="0.8" d="M717.914 574.293C707.087 568.594 707.044 557.475 707.044 557.475C712.947 560.401 717.524 567.363 717.9 573.941L717.923 574.288L717.914 574.293Z" fill="#6AC3A8"/>
<path opacity="0.8" d="M658.384 507.145C653.476 502.037 655.52 495.9 655.52 495.9C658.226 498.584 659.456 503.258 658.435 506.946L658.384 507.145Z" fill="#6AC3A8"/>
<path opacity="0.8" d="M609.495 548.666C603.257 545.257 603.34 538.8 603.34 538.8C606.735 540.554 609.337 544.633 609.486 548.462L609.495 548.666Z" fill="#6AC3A8"/>
<path opacity="0.8" d="M523.01 478.612C516.771 475.203 516.854 468.746 516.854 468.746C520.25 470.5 522.851 474.579 523.001 478.408L523.01 478.612Z" fill="#6AC3A8"/>
<path opacity="0.8" d="M472.05 433.541C455.494 428.976 452.064 413.771 452.064 413.771C461.028 416.022 469.418 424.173 471.92 433.072L472.055 433.55L472.05 433.541Z" fill="#6AC3A8"/>
<path opacity="0.8" d="M546.913 455.963C514.508 468.754 490.049 448.364 490.049 448.364C507.317 441.078 531.012 444.035 546.109 455.364L546.913 455.963Z" fill="#6AC3A8"/>
<path opacity="0.8" d="M586.759 423.769C545.382 414.869 534.734 377.93 534.734 377.93C557.103 382.2 578.925 401.088 586.372 422.628L586.773 423.773L586.759 423.769Z" fill="#6AC3A8"/>
<path opacity="0.8" d="M659.738 469.015C617.265 430.476 630.309 379.877 630.309 379.877C653.646 400.079 666.222 437.063 660.058 467.398L659.733 469.005L659.738 469.015Z" fill="#6AC3A8"/>
<path opacity="0.8" d="M591.345 372.8C554.371 360.455 548.447 325.565 548.447 325.565C568.493 331.745 586.509 351.247 591.103 371.715L591.345 372.8Z" fill="#6AC3A8"/>
<path opacity="0.8" d="M702.629 526.642C677.998 500.708 688.496 469.812 688.496 469.812C702.069 483.456 708.166 507.051 702.916 525.655L702.638 526.638L702.629 526.642Z" fill="#6AC3A8"/>
<path opacity="0.8" d="M730.497 557.83C714.707 551.116 713.35 535.595 713.35 535.595C721.929 539.009 729.148 548.2 730.428 557.343L730.497 557.83Z" fill="#6AC3A8"/>
<path opacity="0.8" d="M615.665 375.022C604.102 366.282 606.229 353.27 606.229 353.27C612.555 357.829 616.564 366.843 615.717 374.615L615.669 375.032L615.665 375.022Z" fill="#6AC3A8"/>
<path opacity="0.8" d="M671.214 488.925C664.975 485.516 665.058 479.059 665.058 479.059C668.454 480.813 671.055 484.893 671.205 488.721L671.214 488.925Z" fill="#6AC3A8"/>
<path opacity="0.8" d="M571.536 315.303C530.159 306.403 519.512 269.464 519.512 269.464C541.88 273.734 563.702 292.622 571.149 314.162L571.551 315.308L571.536 315.303Z" fill="#6AC3A8"/>
<path opacity="0.8" d="M529.355 420.899C489.793 386.705 500.567 340.305 500.567 340.305C522.277 358.205 534.553 391.643 529.619 419.426L529.355 420.899Z" fill="#6AC3A8"/>
<path opacity="0.8" d="M561.37 498.798C538.695 492.548 533.989 471.718 533.989 471.718C546.265 474.791 557.754 485.965 561.183 498.148L561.37 498.798Z" fill="#6AC3A8"/>
<path opacity="0.8" d="M390.669 232.104C349.646 224.025 338.488 187.72 338.488 187.72C360.651 191.559 382.53 209.84 390.254 230.977L390.669 232.104Z" fill="#6AC3A8"/>
<path opacity="0.8" d="M312.024 261.733C271.002 253.655 259.843 217.35 259.843 217.35C282.007 221.188 303.886 239.469 311.609 260.606L312.024 261.733Z" fill="#6AC3A8"/>
<path opacity="0.8" d="M332.542 232.009C295.446 212.869 295.001 174.93 295.001 174.93C315.201 184.763 331.032 208.376 332.464 230.808L332.538 231.999L332.542 232.009Z" fill="#6AC3A8"/>
<path opacity="0.8" d="M370.641 165.651C328.823 165.492 310.861 131.974 310.861 131.974C333.353 131.539 358.354 145.339 370.02 164.625L370.641 165.651Z" fill="#6AC3A8"/>
<path opacity="0.8" d="M303.391 158.449C261.572 158.29 243.61 124.772 243.61 124.772C266.102 124.337 291.103 138.137 302.769 157.423L303.391 158.449Z" fill="#6AC3A8"/>
<path opacity="0.8" d="M271.136 286.844C230.114 278.765 218.955 242.46 218.955 242.46C241.119 246.299 262.997 264.579 270.721 285.716L271.136 286.844Z" fill="#6AC3A8"/>
<path opacity="0.8" d="M500.826 265.428C478.254 266.237 467.826 248.53 467.826 248.53C479.962 247.816 493.749 254.73 500.461 264.889L500.816 265.432L500.826 265.428Z" fill="#6AC3A8"/>
<path opacity="0.8" d="M482.568 336.776C440.095 298.237 453.139 247.638 453.139 247.638C476.475 267.84 489.051 304.824 482.888 335.159L482.563 336.766L482.568 336.776Z" fill="#6AC3A8"/>
<path opacity="0.8" d="M531.56 329.662C494.586 317.317 488.663 282.427 488.663 282.427C508.708 288.607 526.724 308.108 531.318 328.576L531.56 329.662Z" fill="#6AC3A8"/>
<path opacity="0.8" d="M438.495 242.783C426.933 234.042 429.059 221.031 429.059 221.031C435.385 225.59 439.394 234.604 438.547 242.375L438.5 242.792L438.495 242.783Z" fill="#6AC3A8"/>
<path opacity="0.8" d="M488.774 238.155C479.452 231.101 481.159 220.601 481.159 220.601C486.269 224.277 489.499 231.556 488.803 237.816L488.77 238.145L488.774 238.155Z" fill="#6AC3A8"/>
<path opacity="0.8" d="M461.484 194.388C454.612 192.553 453.141 186.261 453.141 186.261C456.855 187.163 460.366 190.516 461.433 194.193L461.484 194.388Z" fill="#6AC3A8"/>
<path opacity="0.8" d="M407.558 286.629C401.319 283.22 401.402 276.763 401.402 276.763C404.797 278.517 407.399 282.596 407.549 286.425L407.558 286.629Z" fill="#6AC3A8"/>
<path opacity="0.8" d="M431.464 263.986C399.059 276.777 374.6 256.387 374.6 256.387C391.868 249.101 415.562 252.057 430.659 263.386L431.464 263.986Z" fill="#6AC3A8"/>
<path opacity="0.8" d="M407.812 352.165C379.757 363.24 358.589 345.581 358.589 345.581C373.535 339.278 394.048 341.834 407.116 351.639L407.812 352.165Z" fill="#6AC3A8"/>
<path opacity="0.8" d="M476.017 349.377C443.612 362.169 419.153 341.778 419.153 341.778C436.421 334.493 460.116 337.449 475.213 348.778L476.017 349.377Z" fill="#6AC3A8"/>
<path opacity="0.8" d="M471.308 231.782C429.931 222.882 419.283 185.944 419.283 185.944C441.652 190.214 463.474 209.102 470.921 230.641L471.322 231.787L471.308 231.782Z" fill="#6AC3A8"/>
<path opacity="0.8" d="M413.893 228.922C374.331 194.728 385.105 148.328 385.105 148.328C406.815 166.228 419.091 199.666 414.157 227.449L413.893 228.922Z" fill="#6AC3A8"/>
<path opacity="0.8" d="M430.741 315.119C375.493 340.261 331.09 306.924 331.09 306.924C360.488 292.709 401.984 295.759 429.292 314.143L430.741 315.119Z" fill="#6AC3A8"/>
<path opacity="0.4" d="M320.326 319.049C307.008 326.611 295.083 319.219 295.083 319.219C302.15 314.982 312.657 314.817 319.938 318.835L320.326 319.049Z" fill="#6AC3A8"/>
<path opacity="0.8" d="M366.595 247.857C344.941 260.154 325.539 248.145 325.539 248.145C337.037 241.26 354.118 240.992 365.969 247.517L366.6 247.866L366.595 247.857Z" fill="#6AC3A8"/>
<path opacity="0.8" d="M316.037 333.449C350.019 347.63 353.121 380.902 353.121 380.902C334.655 373.697 319.052 354.082 316.187 334.497L316.038 333.459L316.037 333.449Z" fill="#6AC3A8"/>
<path opacity="0.8" d="M322.928 282.899C297.256 319.156 256.586 314.263 256.586 314.263C269.934 294.446 297.42 281.149 321.636 282.817L322.918 282.903L322.928 282.899Z" fill="#6AC3A8"/>
<path opacity="0.8" d="M296.645 337.082C246.855 361.201 205.643 331.768 205.643 331.768C232.129 318.177 270.01 320.057 295.298 336.217L296.64 337.073L296.645 337.082Z" fill="#6AC3A8"/>
<path opacity="0.8" d="M445.909 306.822C423.234 300.572 418.528 279.743 418.528 279.743C430.804 282.816 442.293 293.99 445.723 306.173L445.909 306.822Z" fill="#6AC3A8"/>
<rect width="814.315" height="251.155" transform="matrix(-0.863603 -0.504173 -0.511807 0.859101 831.788 411.232)" fill="url(#paint0_linear_38_160)"/>
<defs>
<linearGradient id="paint0_linear_38_160" x1="693.894" y1="109.478" x2="220.157" y2="64.7221" gradientUnits="userSpaceOnUse">
<stop stop-color="white"/>
<stop offset="1" stop-color="#EFF8F4" stop-opacity="0"/>
</linearGradient>
</defs>
</svg>