<svg width="24" height="25" viewBox="0 0 24 25" fill="none" xmlns="http://www.w3.org/2000/svg">
<path d="M12 2.30937C15.2063 2.30937 15.5859 2.32344 16.8469 2.37969C18.0188 2.43125 18.6516 2.62813 19.0734 2.79219C19.6313 3.00781 20.0344 3.27031 20.4516 3.6875C20.8734 4.10938 21.1313 4.50781 21.3469 5.06563C21.5109 5.4875 21.7078 6.125 21.7594 7.29219C21.8156 8.55781 21.8297 8.9375 21.8297 12.1391C21.8297 15.3453 21.8156 15.725 21.7594 16.9859C21.7078 18.1578 21.5109 18.7906 21.3469 19.2125C21.1313 19.7703 20.8687 20.1734 20.4516 20.5906C20.0297 21.0125 19.6313 21.2703 19.0734 21.4859C18.6516 21.65 18.0141 21.8469 16.8469 21.8984C15.5813 21.9547 15.2016 21.9688 12 21.9688C8.79375 21.9688 8.41406 21.9547 7.15313 21.8984C5.98125 21.8469 5.34844 21.65 4.92656 21.4859C4.36875 21.2703 3.96563 21.0078 3.54844 20.5906C3.12656 20.1688 2.86875 19.7703 2.65313 19.2125C2.48906 18.7906 2.29219 18.1531 2.24063 16.9859C2.18438 15.7203 2.17031 15.3406 2.17031 12.1391C2.17031 8.93281 2.18438 8.55312 2.24063 7.29219C2.29219 6.12031 2.48906 5.4875 2.65313 5.06563C2.86875 4.50781 3.13125 4.10469 3.54844 3.6875C3.97031 3.26562 4.36875 3.00781 4.92656 2.79219C5.34844 2.62813 5.98594 2.43125 7.15313 2.37969C8.41406 2.32344 8.79375 2.30937 12 2.30937ZM12 0.148438C8.74219 0.148438 8.33438 0.1625 7.05469 0.21875C5.77969 0.275 4.90313 0.48125 4.14375 0.776562C3.35156 1.08594 2.68125 1.49375 2.01563 2.16406C1.34531 2.82969 0.9375 3.5 0.628125 4.2875C0.332812 5.05156 0.126563 5.92344 0.0703125 7.19844C0.0140625 8.48281 0 8.89062 0 12.1484C0 15.4062 0.0140625 15.8141 0.0703125 17.0938C0.126563 18.3687 0.332812 19.2453 0.628125 20.0047C0.9375 20.7969 1.34531 21.4672 2.01563 22.1328C2.68125 22.7984 3.35156 23.2109 4.13906 23.5156C4.90313 23.8109 5.775 24.0172 7.05 24.0734C8.32969 24.1297 8.7375 24.1437 11.9953 24.1437C15.2531 24.1437 15.6609 24.1297 16.9406 24.0734C18.2156 24.0172 19.0922 23.8109 19.8516 23.5156C20.6391 23.2109 21.3094 22.7984 21.975 22.1328C22.6406 21.4672 23.0531 20.7969 23.3578 20.0094C23.6531 19.2453 23.8594 18.3734 23.9156 17.0984C23.9719 15.8188 23.9859 15.4109 23.9859 12.1531C23.9859 8.89531 23.9719 8.4875 23.9156 7.20781C23.8594 5.93281 23.6531 5.05625 23.3578 4.29688C23.0625 3.5 22.6547 2.82969 21.9844 2.16406C21.3188 1.49844 20.6484 1.08594 19.8609 0.78125C19.0969 0.485937 18.225 0.279688 16.95 0.223438C15.6656 0.1625 15.2578 0.148438 12 0.148438Z" fill="#8A94A6"/>
<path d="M12 5.98438C8.59688 5.98438 5.83594 8.74531 5.83594 12.1484C5.83594 15.5516 8.59688 18.3125 12 18.3125C15.4031 18.3125 18.1641 15.5516 18.1641 12.1484C18.1641 8.74531 15.4031 5.98438 12 5.98438ZM12 16.1469C9.79219 16.1469 8.00156 14.3562 8.00156 12.1484C8.00156 9.94063 9.79219 8.15 12 8.15C14.2078 8.15 15.9984 9.94063 15.9984 12.1484C15.9984 14.3562 14.2078 16.1469 12 16.1469Z" fill="#8A94A6"/>
<path d="M19.8469 5.74082C19.8469 6.5377 19.2 7.17989 18.4078 7.17989C17.6109 7.17989 16.9688 6.53301 16.9688 5.74082C16.9688 4.94395 17.6156 4.30176 18.4078 4.30176C19.2 4.30176 19.8469 4.94863 19.8469 5.74082Z" fill="#8A94A6"/>
</svg>
