<svg width="24" height="25" viewBox="0 0 24 25" fill="none" xmlns="http://www.w3.org/2000/svg">
<path d="M22.2234 0.148438H1.77187C0.792187 0.148438 0 0.921875 0 1.87813V22.4141C0 23.3703 0.792187 24.1484 1.77187 24.1484H22.2234C23.2031 24.1484 24 23.3703 24 22.4188V1.87813C24 0.921875 23.2031 0.148438 22.2234 0.148438ZM7.12031 20.6H3.55781V9.14375H7.12031V20.6ZM5.33906 7.58281C4.19531 7.58281 3.27188 6.65937 3.27188 5.52031C3.27188 4.38125 4.19531 3.45781 5.33906 3.45781C6.47813 3.45781 7.40156 4.38125 7.40156 5.52031C7.40156 6.65469 6.47813 7.58281 5.33906 7.58281ZM20.4516 20.6H16.8937V15.0312C16.8937 13.7047 16.8703 11.9937 15.0422 11.9937C13.1906 11.9937 12.9094 13.4422 12.9094 14.9375V20.6H9.35625V9.14375H12.7687V10.7094H12.8156C13.2891 9.80938 14.4516 8.85781 16.1813 8.85781C19.7859 8.85781 20.4516 11.2297 20.4516 14.3141V20.6Z" fill="#8A94A6"/>
</svg>
