<svg width="24" height="20" viewBox="0 0 24 20" fill="none" xmlns="http://www.w3.org/2000/svg">
<path d="M7.55016 19.8987C16.6045 19.8987 21.5583 12.3954 21.5583 5.89054C21.5583 5.67961 21.5536 5.46398 21.5442 5.25304C22.5079 4.55614 23.3395 3.69294 24 2.70398C23.1025 3.10328 22.1496 3.36406 21.1739 3.47742C22.2013 2.86159 22.9705 1.89415 23.3391 0.754448C22.3726 1.32724 21.3156 1.73129 20.2134 1.94929C19.4708 1.16024 18.489 0.637798 17.4197 0.462733C16.3504 0.287667 15.2532 0.469732 14.2977 0.980778C13.3423 1.49182 12.5818 2.30339 12.1338 3.28999C11.6859 4.2766 11.5754 5.3833 11.8195 6.43898C9.86249 6.34077 7.94794 5.83239 6.19998 4.94678C4.45203 4.06117 2.90969 2.81812 1.67297 1.2982C1.0444 2.38193 0.852057 3.66433 1.13503 4.88477C1.418 6.10522 2.15506 7.17213 3.19641 7.86867C2.41463 7.84385 1.64998 7.63336 0.965625 7.2546V7.31554C0.964925 8.45283 1.3581 9.55527 2.07831 10.4355C2.79852 11.3156 3.80132 11.9192 4.91625 12.1437C4.19206 12.3418 3.43198 12.3707 2.69484 12.228C3.00945 13.2061 3.62157 14.0616 4.44577 14.675C5.26997 15.2885 6.26512 15.6293 7.29234 15.6499C5.54842 17.0198 3.39417 17.7628 1.17656 17.7593C0.783287 17.7587 0.390399 17.7346 0 17.6871C2.25286 19.1324 4.87353 19.9001 7.55016 19.8987Z" fill="#8A94A6"/>
</svg>
