<svg width="24" height="24" viewBox="0 0 24 24" fill="none" xmlns="http://www.w3.org/2000/svg">
<path d="M13.0001 19L12.0001 20L4.50006 12.572C4.00536 12.0906 3.6157 11.512 3.3556 10.8726C3.09551 10.2333 2.97062 9.54694 2.98879 8.85693C3.00697 8.16691 3.16782 7.48813 3.46121 6.86333C3.75461 6.23853 4.17419 5.68125 4.69354 5.22657C5.21289 4.7719 5.82076 4.42968 6.47887 4.22147C7.13697 4.01327 7.83106 3.94358 8.51743 4.0168C9.20379 4.09001 9.86756 4.30455 10.4669 4.6469C11.0663 4.98925 11.5883 5.45199 12.0001 6.00599C12.7957 4.94513 13.9802 4.24378 15.2929 4.05625C16.6057 3.86871 17.9392 4.21034 19.0001 5.00599C20.0609 5.80164 20.7623 6.98613 20.9498 8.29889C21.1373 9.61164 20.7957 10.9451 20.0001 12.006M14.0001 16H20.0001M17.0001 13V19" stroke="#262626" stroke-width="2" stroke-linecap="round" stroke-linejoin="round"/>
</svg>
