<svg width="1062" height="487" viewBox="0 0 1062 487" fill="none" xmlns="http://www.w3.org/2000/svg">
<g opacity="0.6">
<path opacity="0.8" d="M400.362 228.888C367.29 223.171 348.387 247.392 348.387 247.392C366.107 250.883 387.801 243.37 399.733 229.621L400.362 228.888Z" fill="#6AC3A8"/>
<path opacity="0.8" d="M446.665 287.421C417.645 255.263 379.105 264.793 379.105 264.793C394.312 282.449 422.343 292.113 445.432 287.656L446.665 287.421Z" fill="#6AC3A8"/>
<path opacity="0.8" d="M572.681 374.605C559.371 371.061 550.749 380.267 550.749 380.267C557.867 382.346 567.015 380.066 572.397 374.876L572.681 374.605Z" fill="#6AC3A8"/>
<path opacity="0.8" d="M535.049 367.537C523.802 347.027 502.36 347.241 502.36 347.241C508.157 358.418 521.683 366.976 534.372 367.502L535.048 367.527L535.049 367.537Z" fill="#6AC3A8"/>
<path opacity="0.8" d="M747.775 378.146C726.926 372.566 713.413 386.979 713.413 386.979C724.558 390.241 738.885 386.698 747.329 378.582L747.775 378.146Z" fill="#6AC3A8"/>
<path opacity="0.8" d="M647.346 387.498C636.099 366.988 614.657 367.202 614.657 367.202C620.454 378.379 633.98 386.937 646.669 387.463L647.345 387.488L647.346 387.498Z" fill="#6AC3A8"/>
<path opacity="0.8" d="M840.29 377.232C825.88 379.401 821.406 391.965 821.406 391.965C829.184 390.984 837.099 384.918 840.135 377.624L840.3 377.231L840.29 377.232Z" fill="#6AC3A8"/>
<path opacity="0.8" d="M589.477 313.068C532.319 295.943 493.775 334.66 493.775 334.66C524.307 344.591 564.209 335.957 588.194 314.219L589.467 313.069L589.477 313.068Z" fill="#6AC3A8"/>
<path opacity="0.8" d="M609.069 360.456C578.364 334.185 543.872 347.613 543.872 347.613C560.058 362.131 587.138 367.705 607.966 360.822L609.069 360.456Z" fill="#6AC3A8"/>
<path opacity="0.8" d="M825.407 371.093C807.54 355.791 787.446 363.596 787.446 363.596C796.865 372.052 812.643 375.311 824.77 371.305L825.417 371.093L825.407 371.093Z" fill="#6AC3A8"/>
<path opacity="0.8" d="M883.977 312.428C871.308 316.171 868.867 328.016 868.867 328.016C875.73 326.158 882.072 319.723 883.885 312.794L883.977 312.428Z" fill="#6AC3A8"/>
<path opacity="0.8" d="M663.999 320.332C627.631 312.322 605.44 338.216 605.44 338.216C624.899 342.977 649.334 335.755 663.265 321.116L664 320.343L663.999 320.332Z" fill="#6AC3A8"/>
<path opacity="0.8" d="M787.12 323.336C774.732 330.643 775.283 343.793 775.283 343.793C782.045 340.02 787.036 331.546 787.118 323.749L787.12 323.336Z" fill="#6AC3A8"/>
<path opacity="0.8" d="M809.393 377.285C782.134 384.112 775.869 409.059 775.869 409.059C790.614 405.723 804.684 392.627 809.148 378.064L809.382 377.286L809.393 377.285Z" fill="#6AC3A8"/>
<path opacity="0.8" d="M862.533 328.657C813.99 316.713 783.354 350.712 783.354 350.712C809.316 357.751 842.335 348.857 861.512 329.68L862.533 328.657Z" fill="#6AC3A8"/>
<path opacity="0.8" d="M706.815 328.407C692.406 317.96 677.741 325.071 677.741 325.071C685.359 330.871 697.447 332.367 706.341 328.606L706.815 328.407Z" fill="#6AC3A8"/>
<path opacity="0.8" d="M735.314 365.452C680.976 324.718 624.563 350.958 624.563 350.958C653.282 373.555 699.307 379.985 733.487 366.178L735.302 365.443L735.314 365.452Z" fill="#6AC3A8"/>
<path opacity="0.8" d="M481.635 324.236C467.648 318.636 457.086 327.5 457.086 327.5C464.538 330.684 474.763 329.419 481.297 324.501L481.646 324.235L481.635 324.236Z" fill="#6AC3A8"/>
<path opacity="0.8" d="M504.151 371.434C492.868 366.922 484.339 374.067 484.339 374.067C490.353 376.642 498.606 375.614 503.862 371.641L504.14 371.435L504.151 371.434Z" fill="#6AC3A8"/>
<path opacity="0.8" d="M418.677 344.594C407.393 340.082 398.864 347.227 398.864 347.227C404.878 349.803 413.131 348.775 418.388 344.801L418.666 344.595L418.677 344.594Z" fill="#6AC3A8"/>
<path opacity="0.8" d="M450.35 370.626C445.056 365.496 438.621 367.56 438.621 367.56C441.402 370.381 446.277 371.706 450.148 370.685L450.35 370.626Z" fill="#6AC3A8"/>
<path opacity="0.8" d="M730.575 333.103C718.999 332.047 713.147 340.923 713.147 340.923C719.357 341.636 726.641 338.443 730.378 333.368L730.575 333.103Z" fill="#6AC3A8"/>
<path opacity="0.8" d="M678.921 380.205C669.721 379.36 665.069 386.428 665.069 386.428C670.006 386.999 675.796 384.463 678.763 380.423L678.921 380.205Z" fill="#6AC3A8"/>
<path opacity="0.8" d="M693.984 395.305C683.12 388.729 673.107 394.651 673.107 394.651C678.868 398.332 687.551 398.673 693.66 395.482L693.985 395.316L693.984 395.305Z" fill="#6AC3A8"/>
<path opacity="0.8" d="M602.072 378.34C594.879 376.712 590.448 381.819 590.448 381.819C594.296 382.787 599.148 381.376 601.92 378.493L602.072 378.34Z" fill="#6AC3A8"/>
<path opacity="0.8" d="M613.444 312.606C607.071 308.884 601.314 312.418 601.314 312.418C604.691 314.498 609.736 314.626 613.256 312.707L613.444 312.606Z" fill="#6AC3A8"/>
<path opacity="0.8" d="M504.621 273.223C498.249 269.501 492.491 273.035 492.491 273.035C495.868 275.115 500.914 275.243 504.433 273.324L504.621 273.223Z" fill="#6AC3A8"/>
<path opacity="0.8" d="M437.091 252.05C424.207 239.77 408.726 244.867 408.726 244.867C415.504 251.634 427.278 254.728 436.601 252.185L437.102 252.049L437.091 252.05Z" fill="#6AC3A8"/>
<path opacity="0.8" d="M496.952 306.621C491.254 270.944 459.959 260.115 459.959 260.115C462.573 279.378 477.798 298.87 495.986 306.226L496.952 306.621Z" fill="#6AC3A8"/>
<path opacity="0.8" d="M774.866 371.253C769.169 335.577 737.873 324.748 737.873 324.748C740.487 344.011 755.713 363.502 773.901 370.859L774.866 371.253Z" fill="#6AC3A8"/>
<path opacity="0.8" d="M888.795 375.65C863.777 353.816 835.315 364.57 835.315 364.57C848.498 376.632 870.712 381.434 887.881 375.937L888.794 375.64L888.795 375.65Z" fill="#6AC3A8"/>
<path opacity="0.8" d="M944.831 343.645C935.685 343.655 931.742 351.028 931.742 351.028C936.656 351.144 942.135 348.11 944.695 343.862L944.83 343.635L944.831 343.645Z" fill="#6AC3A8"/>
<path opacity="0.8" d="M915.679 361.442C905.26 358.005 897.987 364.925 897.987 364.925C903.542 366.905 910.92 365.519 915.444 361.644L915.689 361.441L915.679 361.442Z" fill="#6AC3A8"/>
<path opacity="0.8" d="M783.036 375.874C767.67 375.888 761.03 388.29 761.03 388.29C769.299 388.478 778.506 383.39 782.804 376.25L783.036 375.874Z" fill="#6AC3A8"/>
<path opacity="0.8" d="M732.038 394.856C702.84 394.333 689.808 417.674 689.808 417.674C705.508 418.319 723.169 408.982 731.593 395.575L732.039 394.867L732.038 394.856Z" fill="#6AC3A8"/>
<path opacity="0.8" d="M768.843 396.585C753.476 396.599 746.836 409.001 746.836 409.001C755.106 409.189 764.312 404.1 768.61 396.961L768.843 396.585Z" fill="#6AC3A8"/>
<path opacity="0.8" d="M965.722 328.35C941.537 316.776 921.724 331.297 921.724 331.297C934.586 337.83 952.907 336.766 965.081 328.779L965.722 328.35Z" fill="#6AC3A8"/>
<path opacity="0.8" d="M923.682 345.545C889.769 329.319 862.002 349.67 862.002 349.67C880.033 358.821 905.717 357.329 922.77 346.136L923.682 345.545Z" fill="#6AC3A8"/>
<path opacity="0.8" d="M489.162 359.313C459.216 327.28 420.378 337.604 420.378 337.604C436.081 355.212 464.628 364.5 487.932 359.581L489.174 359.323L489.162 359.313Z" fill="#6AC3A8"/>
<path opacity="0.8" d="M568.53 399.978C511.372 382.853 472.828 421.57 472.828 421.57C503.36 431.501 543.261 422.867 567.247 401.129L568.519 399.979L568.53 399.978Z" fill="#6AC3A8"/>
<path opacity="0.8" d="M445.799 390.706C415.094 364.435 380.603 377.863 380.603 377.863C396.789 392.381 423.869 397.955 444.696 391.072L445.799 390.706Z" fill="#6AC3A8"/>
<path opacity="0.8" d="M643.062 407.246C606.694 399.236 584.502 425.13 584.502 425.13C603.962 429.891 628.396 422.67 642.327 408.03L643.062 407.257L643.062 407.246Z" fill="#6AC3A8"/>
<path opacity="0.8" d="M685.868 415.321C671.458 404.874 656.793 411.985 656.793 411.985C664.411 417.785 676.499 419.281 685.393 415.52L685.868 415.321Z" fill="#6AC3A8"/>
<path opacity="0.8" d="M460.698 411.146C446.711 405.546 436.148 414.41 436.148 414.41C443.601 417.594 453.826 416.329 460.359 411.411L460.709 411.146L460.698 411.146Z" fill="#6AC3A8"/>
<path opacity="0.8" d="M592.508 399.516C586.135 395.794 580.378 399.328 580.378 399.328C583.755 401.408 588.8 401.536 592.32 399.617L592.508 399.516Z" fill="#6AC3A8"/>
<path opacity="0.8" d="M383.631 403.899C353.685 371.866 314.847 382.19 314.847 382.19C330.549 399.798 359.096 409.086 382.4 404.167L383.642 403.909L383.631 403.899Z" fill="#6AC3A8"/>
<path opacity="0.8" d="M456.133 309.794C404.421 292.93 368.447 327.377 368.447 327.377C396.047 337.095 432.604 330.095 454.949 310.819L456.133 309.794Z" fill="#6AC3A8"/>
<path opacity="0.8" d="M543.107 296.525C525.463 279.706 504.251 286.683 504.251 286.683C513.525 295.954 529.659 300.185 542.425 296.707L543.107 296.525Z" fill="#6AC3A8"/>
<path opacity="0.8" d="M212.929 287.612C183.908 255.454 145.369 264.984 145.369 264.984C160.575 282.64 188.607 292.304 211.696 287.847L212.929 287.612Z" fill="#6AC3A8"/>
<path opacity="0.8" d="M197.831 201.784C168.811 169.626 130.271 179.156 130.271 179.156C145.478 196.812 173.509 206.476 196.598 202.019L197.831 201.784Z" fill="#6AC3A8"/>
<path opacity="0.8" d="M182.008 235.962C145.132 213.224 110.808 233.159 110.808 233.159C130.358 245.857 159.973 247.283 180.888 236.536L181.997 235.963L182.008 235.962Z" fill="#6AC3A8"/>
<path opacity="0.8" d="M142.596 305.41C120.27 268.3 80.6252 270.285 80.6252 270.285C92.1663 290.523 117.828 305.365 141.345 305.407L142.596 305.41Z" fill="#6AC3A8"/>
<path opacity="0.8" d="M100.45 249.453C78.1233 212.343 38.4787 214.328 38.4787 214.328C50.0198 234.566 75.6819 249.408 99.1989 249.45L100.45 249.453Z" fill="#6AC3A8"/>
<path opacity="0.8" d="M198.702 151.96C169.682 119.802 131.143 129.332 131.143 129.332C146.349 146.988 174.381 156.652 197.469 152.195L198.702 151.96Z" fill="#6AC3A8"/>
<path opacity="0.8" d="M301.307 367.733C290.06 347.223 268.618 347.436 268.618 347.436C274.415 358.613 287.941 367.171 300.63 367.697L301.306 367.722L301.307 367.733Z" fill="#6AC3A8"/>
<path opacity="0.8" d="M355.727 313.259C298.569 296.134 260.025 334.852 260.025 334.852C290.557 344.782 330.459 336.148 354.444 314.411L355.717 313.26L355.727 313.259Z" fill="#6AC3A8"/>
<path opacity="0.8" d="M375.325 360.647C344.619 334.376 310.128 347.805 310.128 347.805C326.314 362.322 353.394 367.896 374.221 361.014L375.325 360.647Z" fill="#6AC3A8"/>
<path opacity="0.8" d="M247.895 324.428C233.908 318.827 223.346 327.692 223.346 327.692C230.798 330.875 241.023 329.611 247.556 324.692L247.906 324.427L247.895 324.428Z" fill="#6AC3A8"/>
<path opacity="0.8" d="M270.409 371.629C259.125 367.117 250.597 374.262 250.597 374.262C256.611 376.838 264.864 375.81 270.12 371.836L270.398 371.63L270.409 371.629Z" fill="#6AC3A8"/>
<path opacity="0.8" d="M216.608 370.809C211.313 365.68 204.879 367.744 204.879 367.744C207.66 370.565 212.535 371.89 216.405 370.868L216.608 370.809Z" fill="#6AC3A8"/>
<path opacity="0.8" d="M270.879 273.414C264.506 269.693 258.749 273.226 258.749 273.226C262.126 275.306 267.171 275.434 270.691 273.516L270.879 273.414Z" fill="#6AC3A8"/>
<path opacity="0.8" d="M263.215 306.812C257.518 271.135 226.222 260.306 226.222 260.306C228.836 279.57 244.062 299.061 262.25 306.418L263.215 306.812Z" fill="#6AC3A8"/>
<path opacity="0.8" d="M329.898 238.522C324.966 207.633 297.871 198.268 297.871 198.268C300.136 214.939 313.314 231.815 329.056 238.184L329.898 238.522Z" fill="#6AC3A8"/>
<path opacity="0.8" d="M363.575 300.679C357.878 265.002 326.582 254.174 326.582 254.174C329.196 273.437 344.421 292.928 362.61 300.285L363.575 300.679Z" fill="#6AC3A8"/>
<path opacity="0.8" d="M255.418 359.509C225.472 327.475 186.634 337.8 186.634 337.8C202.336 355.407 230.884 364.695 254.187 359.776L255.43 359.519L255.418 359.509Z" fill="#6AC3A8"/>
<path opacity="0.8" d="M222.391 309.974C170.679 293.109 134.704 327.557 134.704 327.557C162.305 337.275 198.861 330.275 221.207 310.998L222.391 309.974Z" fill="#6AC3A8"/>
<path opacity="0.8" d="M308.776 278.768C302.058 216.155 248.55 194.525 248.55 194.525C251.372 228.29 276.126 263.565 307.13 278.002L308.776 278.768Z" fill="#6AC3A8"/>
<path opacity="0.4" d="M253.733 178.453C253.463 162.555 240.495 155.91 240.495 155.91C240.437 164.466 245.862 173.9 253.335 178.223L253.733 178.453Z" fill="#6AC3A8"/>
<path opacity="0.8" d="M214.312 257.758C213.874 231.907 192.791 221.086 192.791 221.086C192.705 235.002 201.525 250.339 213.675 257.382L214.323 257.757L214.312 257.758Z" fill="#6AC3A8"/>
<path opacity="0.8" d="M264.396 166.922C295.165 189.548 326.705 174.476 326.705 174.476C310.436 161.913 284.535 158.547 265.417 166.493L264.406 166.917L264.396 166.922Z" fill="#6AC3A8"/>
<path opacity="0.8" d="M222.632 200.14C241.592 157.876 215.62 124.324 215.62 124.324C204.895 146.816 207.529 178.39 221.874 199.034L222.632 200.129L222.632 200.14Z" fill="#6AC3A8"/>
<path opacity="0.8" d="M257.373 147.726C252.631 90.5159 204.324 69.6332 204.324 69.6332C206.163 100.474 227.947 133.159 255.882 146.992L257.362 147.727L257.373 147.726Z" fill="#6AC3A8"/>
<path opacity="0.8" d="M309.367 296.705C291.723 279.885 270.511 286.862 270.511 286.862C279.785 296.134 295.919 300.365 308.685 296.887L309.367 296.705Z" fill="#6AC3A8"/>
<rect x="0.482422" y="225.566" width="1044.57" height="262.061" transform="rotate(-4.33791 0.482422 225.566)" fill="url(#paint0_linear_30_84)"/>
</g>
<defs>
<linearGradient id="paint0_linear_30_84" x1="890.58" y1="339.798" x2="285.627" y2="269.536" gradientUnits="userSpaceOnUse">
<stop stop-color="white"/>
<stop offset="1" stop-color="#EFF8F4" stop-opacity="0"/>
</linearGradient>
</defs>
</svg>