<svg width="583" height="430" viewBox="0 0 583 430" fill="none" xmlns="http://www.w3.org/2000/svg">
<g opacity="0.6">
<path opacity="0.8" d="M108.068 370.529C93.9957 365.616 83.9375 374.844 83.9375 374.844C91.4489 377.67 101.507 375.958 107.739 370.799L108.068 370.529Z" fill="#6AC3A8"/>
<path opacity="0.8" d="M68.0354 359.824C57.5781 336.771 34.4219 335.246 34.4219 335.246C39.762 347.781 53.6581 358.124 67.3077 359.73L68.0354 359.812V359.824Z" fill="#6AC3A8"/>
<path opacity="0.8" d="M296.723 388.682C274.682 380.954 258.92 395.401 258.92 395.401C270.68 399.833 286.43 397.183 296.207 389.115L296.723 388.682Z" fill="#6AC3A8"/>
<path opacity="0.8" d="M187.584 390.555C177.127 367.501 153.971 365.977 153.971 365.977C159.311 378.512 173.207 388.854 186.857 390.461L187.584 390.543V390.555Z" fill="#6AC3A8"/>
<path opacity="0.8" d="M396.634 395.272C380.907 396.433 375.051 409.625 375.051 409.625C383.525 409.203 392.562 403.305 396.435 395.683L396.646 395.272H396.634Z" fill="#6AC3A8"/>
<path opacity="0.8" d="M131.23 305.494C70.9508 282.334 26.1875 320.96 26.1875 320.96C58.3222 334.176 102.088 328.125 129.751 306.631L131.218 305.494H131.23Z" fill="#6AC3A8"/>
<path opacity="0.8" d="M148.492 358.239C117.507 327.376 79.1875 339.043 79.1875 339.043C95.4661 356.035 124.232 364.266 147.271 358.544L148.492 358.239Z" fill="#6AC3A8"/>
<path opacity="0.8" d="M381.077 387.427C363.05 369.45 340.727 376.228 340.727 376.228C350.198 386.125 366.958 390.933 380.373 387.602L381.089 387.427H381.077Z" fill="#6AC3A8"/>
<path opacity="0.8" d="M449.083 328.912C435.105 331.914 431.502 344.496 431.502 344.496C439.06 343.054 446.431 336.628 448.954 329.299L449.083 328.912Z" fill="#6AC3A8"/>
<path opacity="0.8" d="M211.053 319.437C172.463 307.816 146.396 333.942 146.396 333.942C167.006 340.673 193.965 334.88 210.196 320.222L211.053 319.448V319.437Z" fill="#6AC3A8"/>
<path opacity="0.8" d="M343.67 332.76C329.704 339.632 329.223 353.867 329.223 353.867C336.828 350.349 342.908 341.613 343.635 333.206L343.67 332.76Z" fill="#6AC3A8"/>
<path opacity="0.8" d="M363.289 392.796C333.314 397.932 324.512 424.34 324.512 424.34C340.696 421.948 356.952 408.967 362.961 393.617L363.278 392.796H363.289Z" fill="#6AC3A8"/>
<path opacity="0.8" d="M424.615 344.673C373.209 327.811 337.365 361.993 337.365 361.993C364.805 371.714 401.165 364.819 423.429 345.694L424.615 344.673Z" fill="#6AC3A8"/>
<path opacity="0.8" d="M256.596 331.657C241.902 319.204 225.494 325.676 225.494 325.676C233.24 332.56 246.162 335.163 256.068 331.833L256.596 331.657Z" fill="#6AC3A8"/>
<path opacity="0.8" d="M284.318 373.963C229.016 325.558 165.99 349.256 165.99 349.256C195.132 375.992 244.273 386.698 282.288 374.597L284.307 373.952L284.318 373.963Z" fill="#6AC3A8"/>
<path opacity="0.8" d="M13.939 308.719C-0.696458 301.531 -12.8203 310.232 -12.8203 310.232C-5.03897 314.278 6.09903 313.75 13.5517 308.977L13.9508 308.719H13.939Z" fill="#6AC3A8"/>
<path opacity="0.8" d="M34.3726 361.499C22.5656 355.707 12.7773 362.719 12.7773 362.719C19.0564 365.991 28.0466 365.557 34.044 361.699L34.3609 361.499H34.3726Z" fill="#6AC3A8"/>
<path opacity="0.8" d="M281.852 338.668C269.446 336.581 262.404 345.68 262.404 345.68C269.047 346.959 277.169 344.109 281.617 338.938L281.852 338.668Z" fill="#6AC3A8"/>
<path opacity="0.8" d="M222.254 385.269C212.395 383.604 206.797 390.85 206.797 390.85C212.078 391.871 218.533 389.607 222.066 385.491L222.254 385.269Z" fill="#6AC3A8"/>
<path opacity="0.8" d="M237.274 402.8C226.089 394.815 214.799 400.384 214.799 400.384C220.714 404.829 230.056 405.907 236.911 402.964L237.274 402.812V402.8Z" fill="#6AC3A8"/>
<path opacity="0.8" d="M139.477 376.967C131.848 374.622 126.648 379.77 126.648 379.77C130.721 381.13 136.073 380.004 139.3 377.12L139.477 376.967Z" fill="#6AC3A8"/>
<path opacity="0.8" d="M157.131 306.962C150.559 302.424 144.057 305.766 144.057 305.766C147.531 308.287 152.965 308.838 156.92 307.055L157.131 306.962Z" fill="#6AC3A8"/>
<path opacity="0.8" d="M42.9202 255.555C36.3477 251.017 29.8457 254.359 29.8457 254.359C33.3197 256.88 38.7537 257.432 42.709 255.649L42.9202 255.555Z" fill="#6AC3A8"/>
<path opacity="0.8" d="M31.9103 290.965C28.6827 251.999 -4.20312 237.751 -4.20312 237.751C-2.95905 258.753 11.876 281.033 30.9009 290.461L31.9103 290.965Z" fill="#6AC3A8"/>
<path opacity="0.8" d="M326.524 383.465C323.296 344.499 290.41 330.251 290.41 330.251C291.654 351.253 306.489 373.533 325.514 382.961L326.524 383.465Z" fill="#6AC3A8"/>
<path opacity="0.8" d="M449.108 397.534C423.898 371.924 392.303 381.199 392.303 381.199C405.542 395.294 429.12 402.294 448.098 397.768L449.108 397.522V397.534Z" fill="#6AC3A8"/>
<path opacity="0.8" d="M512.198 367.585C502.328 366.846 497.469 374.48 497.469 374.48C502.762 375.007 508.924 372.181 512.034 367.808L512.198 367.573V367.585Z" fill="#6AC3A8"/>
<path opacity="0.8" d="M479.283 384.401C468.321 379.839 459.906 386.711 459.906 386.711C465.739 389.302 473.814 388.411 479.013 384.6L479.295 384.401H479.283Z" fill="#6AC3A8"/>
<path opacity="0.8" d="M334.963 389.114C318.38 387.871 310.199 400.712 310.199 400.712C319.107 401.591 329.459 396.854 334.682 389.501L334.963 389.114Z" fill="#6AC3A8"/>
<path opacity="0.8" d="M278.375 405.427C246.909 402.472 230.936 426.593 230.936 426.593C247.824 428.575 267.648 419.944 277.835 406.166L278.375 405.439V405.427Z" fill="#6AC3A8"/>
<path opacity="0.8" d="M317.952 410.302C301.368 409.059 293.188 421.899 293.188 421.899C302.096 422.779 312.447 418.041 317.67 410.689L317.952 410.302Z" fill="#6AC3A8"/>
<path opacity="0.8" d="M535.994 352.788C510.843 338.318 488.273 352.366 488.273 352.366C501.618 360.469 521.476 360.821 535.267 353.199L535.994 352.788Z" fill="#6AC3A8"/>
<path opacity="0.8" d="M489.221 367.9C453.952 347.613 422.322 367.302 422.322 367.302C441.03 378.653 468.869 379.145 488.188 368.463L489.221 367.9Z" fill="#6AC3A8"/>
<path opacity="0.8" d="M19.19 347.193C-10.5035 310.174 -53.2598 318.136 -53.2598 318.136C-37.7558 338.422 -7.71018 350.781 17.8403 347.381L19.2018 347.205L19.19 347.193Z" fill="#6AC3A8"/>
<path opacity="0.8" d="M101.511 397.568C41.232 374.409 -3.53125 413.035 -3.53125 413.035C28.6035 426.25 72.3691 420.199 100.032 398.705L101.499 397.568H101.511Z" fill="#6AC3A8"/>
<path opacity="0.8" d="M181.344 411.511C142.754 399.89 116.688 426.016 116.688 426.016C137.297 432.747 164.256 426.954 180.487 412.296L181.344 411.522V411.511Z" fill="#6AC3A8"/>
<path opacity="0.8" d="M226.877 423.731C212.183 411.278 195.775 417.751 195.775 417.751C203.522 424.634 216.444 427.237 226.349 423.907L226.877 423.731Z" fill="#6AC3A8"/>
<path opacity="0.8" d="M127.424 399.036C120.852 394.498 114.35 397.84 114.35 397.84C117.824 400.361 123.258 400.912 127.213 399.13L127.424 399.036Z" fill="#6AC3A8"/>
<path opacity="0.8" d="M82.5429 283.848C64.8794 264.254 41.418 270.047 41.418 270.047C50.6664 280.811 67.7313 286.698 81.7917 283.989L82.5429 283.848Z" fill="#6AC3A8"/>
<rect x="-455" y="248.145" width="1038" height="181" fill="url(#paint0_linear_2_2440)"/>
</g>
<defs>
<linearGradient id="paint0_linear_2_2440" x1="429.5" y1="327.042" x2="-163.208" y2="227.999" gradientUnits="userSpaceOnUse">
<stop stop-color="white"/>
<stop offset="1" stop-color="#EFF8F4" stop-opacity="0"/>
</linearGradient>
</defs>
</svg>