<svg width="768" height="429" viewBox="0 0 768 429" fill="none" xmlns="http://www.w3.org/2000/svg">
<g opacity="0.6">
<path opacity="0.8" d="M648.958 199.032C684.179 190.155 706.561 214.745 706.561 214.745C687.723 219.963 663.699 213.631 649.697 199.771L648.958 199.032Z" fill="#6AC3A8"/>
<path opacity="0.8" d="M603.785 265.987C632.469 228.909 674.838 236.038 674.838 236.038C659.874 256.336 630.415 269.059 605.134 266.139L603.785 265.987Z" fill="#6AC3A8"/>
<path opacity="0.8" d="M474.932 370.385C489.004 365.471 499.062 374.7 499.062 374.7C491.551 377.526 481.493 375.814 475.261 370.654L474.932 370.385Z" fill="#6AC3A8"/>
<path opacity="0.8" d="M514.965 359.68C525.422 336.626 548.578 335.102 548.578 335.102C543.238 347.637 529.342 357.979 515.692 359.586L514.965 359.668V359.68Z" fill="#6AC3A8"/>
<path opacity="0.8" d="M286.277 388.537C308.318 380.809 324.08 395.256 324.08 395.256C312.32 399.689 296.57 397.038 286.793 388.971L286.277 388.537Z" fill="#6AC3A8"/>
<path opacity="0.8" d="M395.416 390.41C405.873 367.356 429.029 365.832 429.029 365.832C423.689 378.367 409.793 388.71 396.143 390.316L395.416 390.398V390.41Z" fill="#6AC3A8"/>
<path opacity="0.8" d="M186.366 395.128C202.093 396.289 207.949 409.48 207.949 409.48C199.475 409.058 190.438 403.16 186.565 395.538L186.354 395.128H186.366Z" fill="#6AC3A8"/>
<path opacity="0.8" d="M451.77 305.349C512.049 282.19 556.812 320.816 556.812 320.816C524.678 334.031 480.912 327.981 453.249 306.487L451.782 305.349H451.77Z" fill="#6AC3A8"/>
<path opacity="0.8" d="M434.508 358.095C465.493 327.231 503.812 338.899 503.812 338.899C487.534 355.89 458.768 364.122 435.729 358.399L434.508 358.095Z" fill="#6AC3A8"/>
<path opacity="0.8" d="M201.923 387.282C219.95 369.306 242.273 376.084 242.273 376.084C232.802 385.98 216.042 390.788 202.627 387.458L201.911 387.282H201.923Z" fill="#6AC3A8"/>
<path opacity="0.8" d="M133.917 328.767C147.895 331.769 151.498 344.352 151.498 344.352C143.94 342.909 136.569 336.483 134.046 329.154L133.917 328.767Z" fill="#6AC3A8"/>
<path opacity="0.8" d="M371.947 319.292C410.537 307.671 436.604 333.797 436.604 333.797C415.994 340.528 389.035 334.735 372.804 320.078L371.947 319.304V319.292Z" fill="#6AC3A8"/>
<path opacity="0.8" d="M239.33 332.616C253.296 339.487 253.777 353.723 253.777 353.723C246.172 350.205 240.092 341.469 239.365 333.061L239.33 332.616Z" fill="#6AC3A8"/>
<path opacity="0.8" d="M219.711 392.652C249.686 397.788 258.488 424.195 258.488 424.195C242.304 421.803 226.048 408.822 220.039 393.473L219.722 392.652H219.711Z" fill="#6AC3A8"/>
<path opacity="0.8" d="M158.385 344.529C209.791 327.667 245.635 361.848 245.635 361.848C218.195 371.569 181.835 364.674 159.571 345.549L158.385 344.529Z" fill="#6AC3A8"/>
<path opacity="0.8" d="M326.404 331.512C341.098 319.059 357.506 325.532 357.506 325.532C349.76 332.415 336.838 335.018 326.932 331.688L326.404 331.512Z" fill="#6AC3A8"/>
<path opacity="0.8" d="M298.682 373.819C353.984 325.413 417.01 349.112 417.01 349.112C387.868 375.847 338.727 386.553 300.712 374.452L298.693 373.807L298.682 373.819Z" fill="#6AC3A8"/>
<path opacity="0.8" d="M569.061 308.575C583.696 301.387 595.82 310.088 595.82 310.088C588.039 314.133 576.901 313.605 569.448 308.833L569.049 308.575H569.061Z" fill="#6AC3A8"/>
<path opacity="0.8" d="M548.627 361.355C560.434 355.562 570.223 362.574 570.223 362.574C563.944 365.846 554.953 365.412 548.956 361.554L548.639 361.355H548.627Z" fill="#6AC3A8"/>
<path opacity="0.8" d="M638.666 325.39C650.473 319.597 660.262 326.61 660.262 326.61C653.983 329.881 644.992 329.447 638.995 325.589L638.678 325.39H638.666Z" fill="#6AC3A8"/>
<path opacity="0.8" d="M606.618 356.08C611.911 350.112 619.023 351.812 619.023 351.812C616.254 355.084 611.101 356.913 606.841 356.127L606.618 356.08Z" fill="#6AC3A8"/>
<path opacity="0.8" d="M301.148 338.524C313.554 336.436 320.596 345.536 320.596 345.536C313.953 346.814 305.831 343.965 301.383 338.793L301.148 338.524Z" fill="#6AC3A8"/>
<path opacity="0.8" d="M360.746 385.124C370.605 383.459 376.203 390.706 376.203 390.706C370.922 391.726 364.467 389.463 360.934 385.347L360.746 385.124Z" fill="#6AC3A8"/>
<path opacity="0.8" d="M345.726 402.656C356.911 394.67 368.201 400.24 368.201 400.24C362.286 404.684 352.944 405.763 346.089 402.82L345.726 402.667V402.656Z" fill="#6AC3A8"/>
<path opacity="0.8" d="M443.523 376.823C451.152 374.477 456.352 379.625 456.352 379.625C452.279 380.985 446.927 379.86 443.7 376.975L443.523 376.823Z" fill="#6AC3A8"/>
<path opacity="0.8" d="M425.869 306.817C432.441 302.279 438.943 305.621 438.943 305.621C435.469 308.142 430.035 308.693 426.08 306.911L425.869 306.817Z" fill="#6AC3A8"/>
<path opacity="0.8" d="M540.08 255.411C546.652 250.873 553.154 254.215 553.154 254.215C549.68 256.736 544.246 257.287 540.291 255.505L540.08 255.411Z" fill="#6AC3A8"/>
<path opacity="0.8" d="M611.22 227.032C624.119 212.726 641.242 216.959 641.242 216.959C634.482 224.815 622.029 229.119 611.76 227.137L611.208 227.032H611.22Z" fill="#6AC3A8"/>
<path opacity="0.8" d="M551.09 290.82C554.317 251.854 587.203 237.607 587.203 237.607C585.959 258.608 571.124 280.888 552.099 290.316L551.09 290.82Z" fill="#6AC3A8"/>
<path opacity="0.8" d="M256.476 383.32C259.704 344.354 292.59 330.107 292.59 330.107C291.346 351.108 276.511 373.388 257.486 382.816L256.476 383.32Z" fill="#6AC3A8"/>
<path opacity="0.8" d="M133.892 397.389C159.102 371.779 190.697 381.054 190.697 381.054C177.458 395.149 153.88 402.15 134.902 397.624L133.892 397.377V397.389Z" fill="#6AC3A8"/>
<path opacity="0.8" d="M70.8019 367.44C80.6723 366.702 85.5312 374.335 85.5312 374.335C80.2381 374.863 74.0764 372.037 70.9662 367.663L70.8019 367.429V367.44Z" fill="#6AC3A8"/>
<path opacity="0.8" d="M103.717 384.256C114.679 379.695 123.094 386.566 123.094 386.566C117.261 389.158 109.186 388.267 103.987 384.456L103.705 384.256H103.717Z" fill="#6AC3A8"/>
<path opacity="0.8" d="M248.037 388.97C264.62 387.727 272.801 400.567 272.801 400.567C263.893 401.447 253.541 396.709 248.318 389.357L248.037 388.97Z" fill="#6AC3A8"/>
<path opacity="0.8" d="M304.625 405.283C336.091 402.328 352.064 426.448 352.064 426.448C335.176 428.43 315.352 419.8 305.165 406.021L304.625 405.294V405.283Z" fill="#6AC3A8"/>
<path opacity="0.8" d="M265.048 410.157C281.632 408.914 289.812 421.755 289.812 421.755C280.904 422.634 270.553 417.897 265.33 410.544L265.048 410.157Z" fill="#6AC3A8"/>
<path opacity="0.8" d="M47.0057 352.644C72.1572 338.174 94.7266 352.222 94.7266 352.222C81.3821 360.324 61.5239 360.676 47.7334 353.054L47.0057 352.644Z" fill="#6AC3A8"/>
<path opacity="0.8" d="M93.7793 367.755C129.048 347.469 160.678 367.157 160.678 367.157C141.97 378.508 114.131 379.001 94.8121 368.318L93.7793 367.755Z" fill="#6AC3A8"/>
<path opacity="0.8" d="M563.81 347.049C593.503 310.029 636.26 317.991 636.26 317.991C620.756 338.278 590.71 350.637 565.16 347.236L563.798 347.06L563.81 347.049Z" fill="#6AC3A8"/>
<path opacity="0.8" d="M481.489 397.423C541.768 374.264 586.531 412.89 586.531 412.89C554.397 426.106 510.631 420.055 482.968 398.561L481.501 397.423H481.489Z" fill="#6AC3A8"/>
<path opacity="0.8" d="M613.174 377.372C644.159 346.509 682.479 358.176 682.479 358.176C666.2 375.167 637.434 383.399 614.395 377.677L613.174 377.372Z" fill="#6AC3A8"/>
<path opacity="0.8" d="M401.656 411.366C440.246 399.746 466.312 425.871 466.312 425.871C445.703 432.602 418.744 426.81 402.513 412.152L401.656 411.378V411.366Z" fill="#6AC3A8"/>
<path opacity="0.8" d="M356.123 423.587C370.817 411.133 387.225 417.606 387.225 417.606C379.478 424.489 366.556 427.093 356.651 423.762L356.123 423.587Z" fill="#6AC3A8"/>
<path opacity="0.8" d="M598.77 400.649C613.405 393.461 625.529 402.162 625.529 402.162C617.748 406.207 606.61 405.68 599.157 400.907L598.758 400.649H598.77Z" fill="#6AC3A8"/>
<path opacity="0.8" d="M455.576 398.891C462.148 394.353 468.65 397.695 468.65 397.695C465.176 400.216 459.742 400.767 455.787 398.985L455.576 398.891Z" fill="#6AC3A8"/>
<path opacity="0.8" d="M681.339 386.521C711.033 349.502 753.789 357.464 753.789 357.464C738.285 377.75 708.239 390.11 682.689 386.709L681.327 386.533L681.339 386.521Z" fill="#6AC3A8"/>
<path opacity="0.8" d="M595.397 290.906C649.82 268.474 691.461 302.703 691.461 302.703C662.472 315.449 622.45 310.887 596.759 291.914L595.397 290.906Z" fill="#6AC3A8"/>
<path opacity="0.8" d="M500.457 283.704C518.121 264.109 541.582 269.902 541.582 269.902C532.334 280.667 515.269 286.553 501.208 283.844L500.457 283.704Z" fill="#6AC3A8"/>
<path opacity="0.8" d="M767.219 340.754C777.676 317.7 800.832 316.176 800.832 316.176C795.492 328.711 781.596 339.054 767.946 340.66L767.219 340.742V340.754Z" fill="#6AC3A8"/>
<path opacity="0.8" d="M704.032 286.423C764.311 263.264 809.074 301.89 809.074 301.89C776.94 315.106 733.174 309.055 705.511 287.561L704.044 286.423H704.032Z" fill="#6AC3A8"/>
<path opacity="0.8" d="M686.762 339.169C717.747 308.306 756.066 319.973 756.066 319.973C739.788 336.964 711.021 345.196 687.983 339.474L686.762 339.169Z" fill="#6AC3A8"/>
<path opacity="0.8" d="M725.787 203.66C728.58 169.924 757.053 157.6 757.053 157.6C755.973 175.775 743.133 195.065 726.667 203.226L725.787 203.66Z" fill="#6AC3A8"/>
<path opacity="0.8" d="M694.533 273.492C697.761 234.526 730.646 220.279 730.646 220.279C729.402 241.28 714.567 263.56 695.542 272.988L694.533 273.492Z" fill="#6AC3A8"/>
<path opacity="0.8" d="M751.875 245.359C753.999 177.242 809.971 149.521 809.971 149.521C809.689 186.189 785.864 226.281 753.588 244.398L751.875 245.359Z" fill="#6AC3A8"/>
<path opacity="0.8" d="M790.611 121.031C759.261 147.966 723.991 134.284 723.991 134.284C740.519 119.395 768.194 113.642 789.475 120.652L790.6 121.027L790.611 121.031Z" fill="#6AC3A8"/>
<path opacity="0.8" d="M752.707 264.766C770.371 245.172 793.832 250.964 793.832 250.964C784.584 261.729 767.519 267.616 753.458 264.907L752.707 264.766Z" fill="#6AC3A8"/>
<rect width="1038" height="181" transform="matrix(-1 0 0 1 1038 248)" fill="url(#paint0_linear_2_2308)"/>
</g>
<defs>
<linearGradient id="paint0_linear_2_2308" x1="884.5" y1="78.8974" x2="291.792" y2="-20.1452" gradientUnits="userSpaceOnUse">
<stop stop-color="white"/>
<stop offset="1" stop-color="#EFF8F4" stop-opacity="0"/>
</linearGradient>
</defs>
</svg>
