<svg width="511" height="392" viewBox="0 0 511 392" fill="none" xmlns="http://www.w3.org/2000/svg">
<g opacity="0.6" clip-path="url(#clip0_2_2188)">
<path opacity="0.8" d="M19.1688 163.173C-0.00302984 192.944 -32.3172 190.306 -32.3172 190.306C-22.3771 174.055 -1.0507 162.575 18.1443 163.145L19.1688 163.173Z" fill="#6AC3A8"/>
<path opacity="0.8" d="M109.305 76.2461C99.0421 80.8531 90.8843 74.5515 90.8843 74.5515C96.3491 71.9393 104.022 72.5803 109.04 76.0642L109.305 76.2461Z" fill="#6AC3A8"/>
<path opacity="0.8" d="M79.8983 86.8884C73.5245 104.924 56.2135 107.564 56.2135 107.564C59.4192 97.7797 69.1989 89.0955 79.3573 87.006L79.8991 86.8973L79.8983 86.8884Z" fill="#6AC3A8"/>
<path opacity="0.8" d="M249.964 50.4187C233.891 57.6586 221.108 47.795 221.108 47.795C229.664 43.6991 241.676 44.6798 249.547 50.1253L249.964 50.4187Z" fill="#6AC3A8"/>
<path opacity="0.8" d="M167.795 56.0408C161.421 74.0759 144.11 76.7162 144.11 76.7162C147.316 66.932 157.095 58.2478 167.254 56.1583L167.796 56.0496L167.795 56.0408Z" fill="#6AC3A8"/>
<path opacity="0.8" d="M324.657 39.0155C312.759 39.1548 307.504 29.5977 307.504 29.5977C313.902 29.3695 321.077 33.2289 324.481 38.7193L324.666 39.0147L324.657 39.0155Z" fill="#6AC3A8"/>
<path opacity="0.8" d="M130.911 123.73C87.087 145.055 50.9396 118.852 50.9396 118.852C74.2461 106.829 107.541 108.565 129.726 122.969L130.902 123.731L130.911 123.73Z" fill="#6AC3A8"/>
<path opacity="0.8" d="M140.487 82.8979C119.184 108.137 89.6216 101.82 89.6216 101.82C100.763 87.9754 121.859 79.9223 139.55 82.747L140.487 82.8979Z" fill="#6AC3A8"/>
<path opacity="0.8" d="M313.466 45.9282C301.073 60.6274 283.853 56.9619 283.853 56.9619C290.335 48.8984 302.625 44.1977 312.925 45.8411L313.475 45.9274L313.466 45.9282Z" fill="#6AC3A8"/>
<path opacity="0.8" d="M368.374 85.6108C357.672 84.251 354.15 75.0078 354.15 75.0078C359.926 75.6069 365.882 79.9711 368.252 85.3277L368.374 85.6108Z" fill="#6AC3A8"/>
<path opacity="0.8" d="M190.031 108.087C161.769 119.326 140.485 101.331 140.485 101.331C155.545 94.9335 176.187 97.5585 189.337 107.551L190.031 108.079L190.031 108.087Z" fill="#6AC3A8"/>
<path opacity="0.8" d="M299.751 43.0291C276.883 41.093 268.561 21.7734 268.561 21.7734C280.883 22.5319 293.942 31.2599 299.451 42.4321L299.742 43.0298L299.751 43.0291Z" fill="#6AC3A8"/>
<path opacity="0.8" d="M348.96 75.3178C311.4 91.3293 282.246 67.8977 282.246 67.8977C302.248 58.8086 330.03 61.6578 348.003 74.6259L348.96 75.3178Z" fill="#6AC3A8"/>
<path opacity="0.8" d="M223.482 95.9474C213.238 106.273 200.485 102.455 200.485 102.455C205.864 96.7726 215.411 93.9795 223.073 95.849L223.482 95.9474Z" fill="#6AC3A8"/>
<path opacity="0.8" d="M241.59 62.3018C203.137 102.319 154.223 88.5339 154.223 88.5339C174.407 66.5217 210.661 55.2924 240.022 61.9558L241.582 62.3114L241.59 62.3018Z" fill="#6AC3A8"/>
<path opacity="0.8" d="M42.5258 128.86C31.9865 135.217 22.3099 129.446 22.3099 129.446C27.8989 125.897 36.3068 125.577 42.218 128.691L42.5346 128.859L42.5258 128.86Z" fill="#6AC3A8"/>
<path opacity="0.8" d="M54.4814 87.794C45.9785 92.9173 38.1668 88.2674 38.1668 88.2674C42.6764 85.3989 49.4634 85.1463 54.2214 87.6651L54.4725 87.7948L54.4814 87.794Z" fill="#6AC3A8"/>
<path opacity="0.8" d="M11.2243 95.509C7.63004 100.345 2.17307 99.5229 2.17307 99.5229C4.0443 96.8806 7.79984 95.171 11.0536 95.4881L11.2243 95.509Z" fill="#6AC3A8"/>
<path opacity="0.8" d="M24.6249 196.473C26.3013 205.038 20.1129 210.096 20.1129 210.096C19.0978 205.513 20.93 199.823 24.4348 196.64L24.6249 196.473Z" fill="#6AC3A8"/>
<path opacity="0.8" d="M194.2 57.789C186.896 59.6783 182.219 54.5817 182.219 54.5817C186.124 53.4731 191.123 54.7614 194.045 57.6333L194.2 57.789Z" fill="#6AC3A8"/>
<path opacity="0.8" d="M204.362 43.6202C196.469 50.3547 187.621 46.8878 187.621 46.8878C191.781 43.1597 198.735 41.7452 204.078 43.52L204.362 43.6114L204.362 43.6202Z" fill="#6AC3A8"/>
<path opacity="0.8" d="M132.499 69.3763C126.915 71.6341 122.674 68.0925 122.674 68.0925C125.648 66.8057 129.744 67.3085 132.357 69.2729L132.499 69.3763Z" fill="#6AC3A8"/>
<path opacity="0.8" d="M150.294 120.958C145.645 124.799 140.541 122.702 140.541 122.702C142.99 120.579 147.04 119.814 150.129 120.901L150.294 120.958Z" fill="#6AC3A8"/>
<path opacity="0.8" d="M67.7429 167.032C63.0945 170.874 57.9904 168.776 57.9904 168.776C60.4395 166.653 64.4893 165.888 67.578 166.975L67.7429 167.032Z" fill="#6AC3A8"/>
<path opacity="0.8" d="M16.0974 192.987C7.32351 204.591 -5.82369 202.507 -5.82369 202.507C-1.24835 196.155 7.83592 192.111 15.6847 192.942L16.1062 192.986L16.0974 192.987Z" fill="#6AC3A8"/>
<path opacity="0.8" d="M57.184 141.071C57.2729 170.624 33.4683 183.472 33.4683 183.472C33.0479 167.576 42.763 149.842 56.4577 141.516L57.184 141.071Z" fill="#6AC3A8"/>
<path opacity="0.8" d="M272.706 52.4266C272.794 81.9791 248.99 94.8278 248.99 94.8278C248.569 78.9318 258.284 61.1973 271.979 52.8713L272.706 52.4266Z" fill="#6AC3A8"/>
<path opacity="0.8" d="M363.963 33.9332C346.663 54.8442 322.31 49.8952 322.31 49.8952C331.354 38.4275 348.629 31.636 363.189 33.8216L363.964 33.942L363.963 33.9332Z" fill="#6AC3A8"/>
<path opacity="0.8" d="M413.326 52.4197C405.953 53.6122 401.807 48.1765 401.807 48.1765C405.752 47.438 410.567 49.1691 413.188 52.2625L413.327 52.4285L413.326 52.4197Z" fill="#6AC3A8"/>
<path opacity="0.8" d="M387.498 41.8764C379.551 46.018 372.781 41.3855 372.781 41.3855C376.999 39.058 383.127 39.2087 387.282 41.7436L387.507 41.8756L387.498 41.8764Z" fill="#6AC3A8"/>
<path opacity="0.8" d="M278.688 47.6267C266.3 49.6315 259.321 40.4891 259.321 40.4891C265.962 39.2527 274.05 42.1532 278.451 47.3534L278.688 47.6267Z" fill="#6AC3A8"/>
<path opacity="0.8" d="M235.095 38.9893C211.629 43.2424 198.063 26.107 198.063 26.107C210.633 23.5262 226.093 28.7481 234.642 38.4677L235.094 38.9804L235.095 38.9893Z" fill="#6AC3A8"/>
<path opacity="0.8" d="M264.534 32.7673C252.146 34.7721 245.167 25.6297 245.167 25.6297C251.807 24.3933 259.896 27.2938 264.297 32.4941L264.534 32.7673Z" fill="#6AC3A8"/>
<path opacity="0.8" d="M413.154 86.0281C389.093 90.7645 374.883 72.779 374.883 72.779C387.764 69.9177 403.737 75.2923 412.677 85.4925L413.155 86.0349L413.154 86.0281Z" fill="#6AC3A8"/>
<path opacity="0.8" d="M470.667 91.8381C438.919 97.9843 420.237 74.9893 420.237 74.9893C437.235 71.2817 458.282 78.1152 470.039 91.1536L470.668 91.8469L470.667 91.8381Z" fill="#6AC3A8"/>
<path opacity="0.8" d="M432.172 62.0313C414.197 74.5493 396.322 65.4246 396.322 65.4246C405.832 58.4626 420.739 56.9179 431.599 61.7691L432.172 62.0313Z" fill="#6AC3A8"/>
<path opacity="0.8" d="M396.026 53.6644C370.82 71.2144 345.769 58.426 345.769 58.426C359.101 48.6722 380 46.5072 395.213 53.3071L396.026 53.6644Z" fill="#6AC3A8"/>
<path opacity="0.8" d="M43.9883 99.5467C24.0538 129.339 -8.60524 126.098 -8.60524 126.098C1.74145 109.822 23.5325 98.5781 42.9615 99.4924L43.9964 99.5371L43.9883 99.5467Z" fill="#6AC3A8"/>
<path opacity="0.8" d="M102.626 56.3043C58.8019 77.6297 22.6545 51.4261 22.6545 51.4261C45.9609 39.4029 79.2555 41.1391 101.441 55.543L102.617 56.3051L102.626 56.3043Z" fill="#6AC3A8"/>
<path opacity="0.8" d="M4.91864 79.894C-16.3839 105.133 -45.9468 98.8163 -45.9468 98.8163C-34.805 84.9715 -13.7092 76.9184 3.98129 79.7431L4.91864 79.894Z" fill="#6AC3A8"/>
<path opacity="0.8" d="M161.748 40.6616C133.486 51.8997 112.202 33.9048 112.202 33.9048C127.262 27.5077 147.904 30.1327 161.053 40.1251L161.747 40.6527L161.748 40.6616Z" fill="#6AC3A8"/>
<path opacity="0.8" d="M195.193 28.5256C184.949 38.8508 172.195 35.0336 172.195 35.0336C177.575 29.3508 187.122 26.5576 194.784 28.4271L195.193 28.5256Z" fill="#6AC3A8"/>
<path opacity="0.8" d="M14.2426 61.4344C3.70337 67.7909 -5.97329 62.0198 -5.97329 62.0198C-0.384267 58.4717 8.02358 58.1513 13.9348 61.2651L14.2514 61.4337L14.2426 61.4344Z" fill="#6AC3A8"/>
<path opacity="0.8" d="M122.012 53.5325C117.364 57.3736 112.26 55.2758 112.26 55.2758C114.709 53.1533 118.759 52.3881 121.848 53.4755L122.012 53.5325Z" fill="#6AC3A8"/>
<path opacity="0.8" d="M23.8665 143.867C-15.6014 164.267 -49.1178 141.174 -49.1178 141.174C-28.1458 129.707 2.23783 130.563 22.7779 143.195L23.8665 143.867Z" fill="#6AC3A8"/>
<path opacity="0.8" d="M95.7083 143.168C83.6934 159.063 65.6806 156.212 65.6806 156.212C71.9389 147.51 84.3887 141.977 95.1345 143.111L95.7083 143.168Z" fill="#6AC3A8"/>
<rect x="-318" y="69" width="804" height="204.647" transform="rotate(-4.9 -318 69)" fill="url(#paint0_linear_2_2188)"/>
</g>
<defs>
<linearGradient id="paint0_linear_2_2188" x1="467.419" y1="120.405" x2="-116.968" y2="341.703" gradientUnits="userSpaceOnUse">
<stop stop-color="white"/>
<stop offset="1" stop-color="white" stop-opacity="0"/>
</linearGradient>
<clipPath id="clip0_2_2188">
<rect width="804" height="324" fill="white" transform="translate(-318 68.6641) rotate(-4.89937)"/>
</clipPath>
</defs>
</svg>
